<mxfile host="Electron" modified="2023-11-15T19:26:15.597Z" agent="Mozilla/5.0 (Macintosh; Intel Mac OS X 10_15_7) AppleWebKit/537.36 (KHTML, like Gecko) draw.io/22.0.3 Chrome/114.0.5735.289 Electron/25.8.4 Safari/537.36" etag="LRuGSi_roWL1FXOLzvuD" version="22.0.3" type="device">
  <diagram name="Page-1" id="cV1KAD0GI4Z8nje0-rML">
    <mxGraphModel dx="357" dy="606" grid="1" gridSize="10" guides="1" tooltips="1" connect="1" arrows="1" fold="1" page="1" pageScale="1" pageWidth="827" pageHeight="1169" math="0" shadow="0">
      <root>
        <mxCell id="0" />
        <mxCell id="1" parent="0" />
        <mxCell id="qMMV_13vjlb-v99lOyJo-1" value="" style="ellipse;html=1;shape=startState;fillColor=#000000;strokeColor=#ff0000;" vertex="1" parent="1">
          <mxGeometry x="180" y="30" width="30" height="30" as="geometry" />
        </mxCell>
        <mxCell id="qMMV_13vjlb-v99lOyJo-2" value="" style="edgeStyle=orthogonalEdgeStyle;html=1;verticalAlign=bottom;endArrow=open;endSize=8;strokeColor=#ff0000;rounded=0;" edge="1" source="qMMV_13vjlb-v99lOyJo-1" parent="1">
          <mxGeometry relative="1" as="geometry">
            <mxPoint x="195" y="120" as="targetPoint" />
          </mxGeometry>
        </mxCell>
        <mxCell id="qMMV_13vjlb-v99lOyJo-3" value="Inscrire a" style="rounded=1;whiteSpace=wrap;html=1;arcSize=40;fontColor=#000000;fillColor=#ffffc0;strokeColor=#ff0000;" vertex="1" parent="1">
          <mxGeometry x="135" y="120" width="120" height="40" as="geometry" />
        </mxCell>
        <mxCell id="qMMV_13vjlb-v99lOyJo-4" value="" style="edgeStyle=orthogonalEdgeStyle;html=1;verticalAlign=bottom;endArrow=open;endSize=8;strokeColor=#ff0000;rounded=0;" edge="1" source="qMMV_13vjlb-v99lOyJo-3" parent="1">
          <mxGeometry relative="1" as="geometry">
            <mxPoint x="195" y="220" as="targetPoint" />
          </mxGeometry>
        </mxCell>
        <mxCell id="qMMV_13vjlb-v99lOyJo-5" value="Inscrire b" style="rounded=1;whiteSpace=wrap;html=1;arcSize=40;fontColor=#000000;fillColor=#ffffc0;strokeColor=#ff0000;" vertex="1" parent="1">
          <mxGeometry x="135" y="220" width="120" height="40" as="geometry" />
        </mxCell>
        <mxCell id="qMMV_13vjlb-v99lOyJo-6" value="" style="edgeStyle=orthogonalEdgeStyle;html=1;verticalAlign=bottom;endArrow=open;endSize=8;strokeColor=#ff0000;rounded=0;" edge="1" source="qMMV_13vjlb-v99lOyJo-5" parent="1">
          <mxGeometry relative="1" as="geometry">
            <mxPoint x="195" y="320" as="targetPoint" />
          </mxGeometry>
        </mxCell>
        <mxCell id="qMMV_13vjlb-v99lOyJo-7" value="afficher a" style="rounded=1;whiteSpace=wrap;html=1;arcSize=40;fontColor=#000000;fillColor=#ffffc0;strokeColor=#ff0000;" vertex="1" parent="1">
          <mxGeometry x="135" y="320" width="120" height="40" as="geometry" />
        </mxCell>
        <mxCell id="qMMV_13vjlb-v99lOyJo-8" value="" style="edgeStyle=orthogonalEdgeStyle;html=1;verticalAlign=bottom;endArrow=open;endSize=8;strokeColor=#ff0000;rounded=0;" edge="1" source="qMMV_13vjlb-v99lOyJo-7" parent="1">
          <mxGeometry relative="1" as="geometry">
            <mxPoint x="195" y="420" as="targetPoint" />
          </mxGeometry>
        </mxCell>
        <mxCell id="qMMV_13vjlb-v99lOyJo-9" value="Afficher b" style="rounded=1;whiteSpace=wrap;html=1;arcSize=40;fontColor=#000000;fillColor=#ffffc0;strokeColor=#ff0000;" vertex="1" parent="1">
          <mxGeometry x="135" y="420" width="120" height="40" as="geometry" />
        </mxCell>
        <mxCell id="qMMV_13vjlb-v99lOyJo-10" value="" style="edgeStyle=orthogonalEdgeStyle;html=1;verticalAlign=bottom;endArrow=open;endSize=8;strokeColor=#ff0000;rounded=0;" edge="1" source="qMMV_13vjlb-v99lOyJo-9" parent="1">
          <mxGeometry relative="1" as="geometry">
            <mxPoint x="195" y="520" as="targetPoint" />
          </mxGeometry>
        </mxCell>
        <mxCell id="qMMV_13vjlb-v99lOyJo-11" value="c &amp;lt;-- a" style="rounded=1;whiteSpace=wrap;html=1;arcSize=40;fontColor=#000000;fillColor=#ffffc0;strokeColor=#ff0000;" vertex="1" parent="1">
          <mxGeometry x="135" y="520" width="120" height="40" as="geometry" />
        </mxCell>
        <mxCell id="qMMV_13vjlb-v99lOyJo-12" value="" style="edgeStyle=orthogonalEdgeStyle;html=1;verticalAlign=bottom;endArrow=open;endSize=8;strokeColor=#ff0000;rounded=0;" edge="1" source="qMMV_13vjlb-v99lOyJo-11" parent="1">
          <mxGeometry relative="1" as="geometry">
            <mxPoint x="195" y="620" as="targetPoint" />
          </mxGeometry>
        </mxCell>
        <mxCell id="qMMV_13vjlb-v99lOyJo-13" value="a &amp;lt;-- b" style="rounded=1;whiteSpace=wrap;html=1;arcSize=40;fontColor=#000000;fillColor=#ffffc0;strokeColor=#ff0000;" vertex="1" parent="1">
          <mxGeometry x="135" y="620" width="120" height="40" as="geometry" />
        </mxCell>
        <mxCell id="qMMV_13vjlb-v99lOyJo-14" value="" style="edgeStyle=orthogonalEdgeStyle;html=1;verticalAlign=bottom;endArrow=open;endSize=8;strokeColor=#ff0000;rounded=0;" edge="1" source="qMMV_13vjlb-v99lOyJo-13" parent="1">
          <mxGeometry relative="1" as="geometry">
            <mxPoint x="195" y="720" as="targetPoint" />
          </mxGeometry>
        </mxCell>
        <mxCell id="qMMV_13vjlb-v99lOyJo-15" value="b &amp;lt;-- c" style="rounded=1;whiteSpace=wrap;html=1;arcSize=40;fontColor=#000000;fillColor=#ffffc0;strokeColor=#ff0000;" vertex="1" parent="1">
          <mxGeometry x="135" y="720" width="120" height="40" as="geometry" />
        </mxCell>
        <mxCell id="qMMV_13vjlb-v99lOyJo-16" value="" style="edgeStyle=orthogonalEdgeStyle;html=1;verticalAlign=bottom;endArrow=open;endSize=8;strokeColor=#ff0000;rounded=0;" edge="1" source="qMMV_13vjlb-v99lOyJo-15" parent="1">
          <mxGeometry relative="1" as="geometry">
            <mxPoint x="195" y="820" as="targetPoint" />
          </mxGeometry>
        </mxCell>
        <mxCell id="qMMV_13vjlb-v99lOyJo-17" value="afficher a" style="rounded=1;whiteSpace=wrap;html=1;arcSize=40;fontColor=#000000;fillColor=#ffffc0;strokeColor=#ff0000;" vertex="1" parent="1">
          <mxGeometry x="135" y="820" width="120" height="40" as="geometry" />
        </mxCell>
        <mxCell id="qMMV_13vjlb-v99lOyJo-18" value="" style="edgeStyle=orthogonalEdgeStyle;html=1;verticalAlign=bottom;endArrow=open;endSize=8;strokeColor=#ff0000;rounded=0;" edge="1" source="qMMV_13vjlb-v99lOyJo-17" parent="1">
          <mxGeometry relative="1" as="geometry">
            <mxPoint x="195" y="920" as="targetPoint" />
          </mxGeometry>
        </mxCell>
        <mxCell id="qMMV_13vjlb-v99lOyJo-19" value="Afficher b" style="rounded=1;whiteSpace=wrap;html=1;arcSize=40;fontColor=#000000;fillColor=#ffffc0;strokeColor=#ff0000;" vertex="1" parent="1">
          <mxGeometry x="135" y="920" width="120" height="40" as="geometry" />
        </mxCell>
        <mxCell id="qMMV_13vjlb-v99lOyJo-20" value="" style="edgeStyle=orthogonalEdgeStyle;html=1;verticalAlign=bottom;endArrow=open;endSize=8;strokeColor=#ff0000;rounded=0;" edge="1" source="qMMV_13vjlb-v99lOyJo-19" parent="1">
          <mxGeometry relative="1" as="geometry">
            <mxPoint x="195" y="1020" as="targetPoint" />
          </mxGeometry>
        </mxCell>
        <mxCell id="qMMV_13vjlb-v99lOyJo-21" value="" style="ellipse;html=1;shape=endState;fillColor=#000000;strokeColor=#ff0000;" vertex="1" parent="1">
          <mxGeometry x="180" y="1020" width="30" height="30" as="geometry" />
        </mxCell>
      </root>
    </mxGraphModel>
  </diagram>
</mxfile>
